<svg width="15" height="7" viewBox="0 0 15 7" fill="none" xmlns="http://www.w3.org/2000/svg">
<path d="M2.14018 0.231779C1.71591 -0.121785 1.08534 -0.0644614 0.731779 0.359816C0.378215 0.784093 0.435539 1.41466 0.859816 1.76822L2.14018 0.231779ZM7.5 6L6.85982 6.76822C7.23066 7.07726 7.76934 7.07726 8.14018 6.76822L7.5 6ZM14.1402 1.76822C14.5645 1.41466 14.6218 0.784093 14.2682 0.359816C13.9147 -0.0644614 13.2841 -0.121785 12.8598 0.231779L14.1402 1.76822ZM0.859816 1.76822L6.85982 6.76822L8.14018 5.23178L2.14018 0.231779L0.859816 1.76822ZM8.14018 6.76822L14.1402 1.76822L12.8598 0.231779L6.85982 5.23178L8.14018 6.76822Z" fill="#737898"/>
</svg>
